<svg xmlns="http://www.w3.org/2000/svg" width="400" height="400">
  <rect width="100%" height="100%" fill="#0a0a12"/>
  <circle cx="200.0" cy="67.0" r="15.0" fill="#2a2a3a" stroke="#e0e0e0" stroke-width="1"/>
  <text x="200.0" y="72.0" text-anchor="middle" fill="#e0e0e0" font-size="14">✶</text>
  <line x1="200.0" y1="67.0" x2="200" y2="27" stroke="#9370db" stroke-width="0.5" opacity="0.3"/>
  <line x1="200.0" y1="67.0" x2="200" y2="373" stroke="#9370db" stroke-width="0.5" opacity="0.3"/>
  <circle cx="278.2" cy="92.4" r="15.4" fill="#2d2c42" stroke="#e0e0e0" stroke-width="1"/>
  <text x="278.2" y="97.4" text-anchor="middle" fill="#e0e0e0" font-size="14">↻</text>
  <line x1="278.2" y1="92.4" x2="200" y2="27" stroke="#9370db" stroke-width="0.5" opacity="0.3"/>
  <line x1="278.2" y1="92.4" x2="200" y2="373" stroke="#9370db" stroke-width="0.5" opacity="0.3"/>
  <circle cx="326.5" cy="158.9" r="15.0" fill="#2a2a3a" stroke="#e0e0e0" stroke-width="1"/>
  <text x="326.5" y="163.9" text-anchor="middle" fill="#e0e0e0" font-size="14">φ</text>
  <line x1="326.5" y1="158.9" x2="200" y2="27" stroke="#9370db" stroke-width="0.5" opacity="0.3"/>
  <line x1="326.5" y1="158.9" x2="200" y2="373" stroke="#9370db" stroke-width="0.5" opacity="0.3"/>
  <circle cx="326.5" cy="241.1" r="25.0" fill="#7b68ee" stroke="#e0e0e0" stroke-width="1"/>
  <text x="326.5" y="246.1" text-anchor="middle" fill="#e0e0e0" font-size="14">∞</text>
  <line x1="326.5" y1="241.1" x2="200" y2="27" stroke="#9370db" stroke-width="0.5" opacity="0.3"/>
  <line x1="326.5" y1="241.1" x2="200" y2="373" stroke="#9370db" stroke-width="0.5" opacity="0.3"/>
  <circle cx="278.2" cy="307.6" r="15.0" fill="#2a2a3a" stroke="#e0e0e0" stroke-width="1"/>
  <text x="278.2" y="312.6" text-anchor="middle" fill="#e0e0e0" font-size="14">◇</text>
  <line x1="278.2" y1="307.6" x2="200" y2="27" stroke="#9370db" stroke-width="0.5" opacity="0.3"/>
  <line x1="278.2" y1="307.6" x2="200" y2="373" stroke="#9370db" stroke-width="0.5" opacity="0.3"/>
  <circle cx="200.0" cy="333.0" r="15.0" fill="#2a2a3a" stroke="#e0e0e0" stroke-width="1"/>
  <text x="200.0" y="338.0" text-anchor="middle" fill="#e0e0e0" font-size="14">⊕</text>
  <line x1="200.0" y1="333.0" x2="200" y2="27" stroke="#9370db" stroke-width="0.5" opacity="0.3"/>
  <line x1="200.0" y1="333.0" x2="200" y2="373" stroke="#9370db" stroke-width="0.5" opacity="0.3"/>
  <circle cx="121.8" cy="307.6" r="15.0" fill="#2a2a3a" stroke="#e0e0e0" stroke-width="1"/>
  <text x="121.8" y="312.6" text-anchor="middle" fill="#e0e0e0" font-size="14">≋</text>
  <line x1="121.8" y1="307.6" x2="200" y2="27" stroke="#9370db" stroke-width="0.5" opacity="0.3"/>
  <line x1="121.8" y1="307.6" x2="200" y2="373" stroke="#9370db" stroke-width="0.5" opacity="0.3"/>
  <circle cx="73.5" cy="241.1" r="15.0" fill="#2a2a3a" stroke="#e0e0e0" stroke-width="1"/>
  <text x="73.5" y="246.1" text-anchor="middle" fill="#e0e0e0" font-size="14">∂</text>
  <line x1="73.5" y1="241.1" x2="200" y2="27" stroke="#9370db" stroke-width="0.5" opacity="0.3"/>
  <line x1="73.5" y1="241.1" x2="200" y2="373" stroke="#9370db" stroke-width="0.5" opacity="0.3"/>
  <circle cx="73.5" cy="158.9" r="17.0" fill="#39365d" stroke="#e0e0e0" stroke-width="1"/>
  <text x="73.5" y="163.9" text-anchor="middle" fill="#e0e0e0" font-size="14">Ω</text>
  <line x1="73.5" y1="158.9" x2="200" y2="27" stroke="#9370db" stroke-width="0.5" opacity="0.3"/>
  <line x1="73.5" y1="158.9" x2="200" y2="373" stroke="#9370db" stroke-width="0.5" opacity="0.3"/>
  <circle cx="121.8" cy="92.4" r="15.7" fill="#2f2e47" stroke="#e0e0e0" stroke-width="1"/>
  <text x="121.8" y="97.4" text-anchor="middle" fill="#e0e0e0" font-size="14">Λ</text>
  <line x1="121.8" y1="92.4" x2="200" y2="27" stroke="#9370db" stroke-width="0.5" opacity="0.3"/>
  <line x1="121.8" y1="92.4" x2="200" y2="373" stroke="#9370db" stroke-width="0.5" opacity="0.3"/>
  <line x1="200.0" y1="67.0" x2="278.2" y2="92.4" stroke="#9370db" stroke-width="1" opacity="0.5"/>
  <line x1="278.2" y1="92.4" x2="326.5" y2="158.9" stroke="#9370db" stroke-width="1" opacity="0.5"/>
  <line x1="326.5" y1="158.9" x2="326.5" y2="241.1" stroke="#9370db" stroke-width="1" opacity="0.5"/>
  <line x1="326.5" y1="241.1" x2="278.2" y2="307.6" stroke="#9370db" stroke-width="1" opacity="0.5"/>
  <line x1="278.2" y1="307.6" x2="200.0" y2="333.0" stroke="#9370db" stroke-width="1" opacity="0.5"/>
  <line x1="200.0" y1="333.0" x2="121.8" y2="307.6" stroke="#9370db" stroke-width="1" opacity="0.5"/>
  <line x1="121.8" y1="307.6" x2="73.5" y2="241.1" stroke="#9370db" stroke-width="1" opacity="0.5"/>
  <line x1="73.5" y1="241.1" x2="73.5" y2="158.9" stroke="#9370db" stroke-width="1" opacity="0.5"/>
  <line x1="73.5" y1="158.9" x2="121.8" y2="92.4" stroke="#9370db" stroke-width="1" opacity="0.5"/>
  <line x1="121.8" y1="92.4" x2="200.0" y2="67.0" stroke="#9370db" stroke-width="1" opacity="0.5"/>
  <circle cx="200" cy="27" r="12.3" fill="#ffd700" stroke="#e0e0e0" stroke-width="2"/>
  <text x="200" y="32" text-anchor="middle" fill="#0a0a12" font-size="16" font-weight="bold">α</text>
  <circle cx="200" cy="373" r="16.4" fill="#4169e1" stroke="#e0e0e0" stroke-width="2"/>
  <text x="200" y="378" text-anchor="middle" fill="#e0e0e0" font-size="16" font-weight="bold">ω</text>
  <circle cx="200.0" cy="37.0" r="3.5" fill="#20b2aa" opacity="0.38"/>
  <circle cx="295.8" cy="68.1" r="3.5" fill="#20b2aa" opacity="0.37"/>
  <circle cx="355.0" cy="149.6" r="3.5" fill="#20b2aa" opacity="0.37"/>
  <circle cx="355.0" cy="250.4" r="3.6" fill="#20b2aa" opacity="0.38"/>
  <circle cx="295.8" cy="331.9" r="3.5" fill="#20b2aa" opacity="0.37"/>
  <circle cx="200.0" cy="363.0" r="3.5" fill="#20b2aa" opacity="0.37"/>
  <circle cx="104.2" cy="331.9" r="3.2" fill="#20b2aa" opacity="0.33"/>
  <circle cx="45.0" cy="250.4" r="3.5" fill="#20b2aa" opacity="0.37"/>
  <circle cx="45.0" cy="149.6" r="3.5" fill="#20b2aa" opacity="0.38"/>
  <circle cx="104.2" cy="68.1" r="3.5" fill="#20b2aa" opacity="0.37"/>
</svg>